<svg width="16" height="16" viewBox="0 0 16 16" fill="none" xmlns="http://www.w3.org/2000/svg">
<g id="Icons1/Address">
<g id="Icons1/Site">
<g id="Icon">
<path id="Icon Shape" fill-rule="evenodd" clip-rule="evenodd" d="M7.99998 1.3335C4.31808 1.3335 1.33331 4.31826 1.33331 8.00016C1.33331 11.6821 4.31808 14.6668 7.99998 14.6668C11.6819 14.6668 14.6666 11.6821 14.6666 8.00016C14.6666 6.23205 13.9643 4.53636 12.714 3.28612C11.4638 2.03588 9.76809 1.3335 7.99998 1.3335ZM8.66665 13.2868V12.6668C8.66665 12.2986 8.36817 12.0002 7.99998 12.0002C7.63179 12.0002 7.33331 12.2986 7.33331 12.6668V13.2868C4.91985 12.9808 3.01937 11.0803 2.71331 8.66683H3.33331C3.7015 8.66683 3.99998 8.36835 3.99998 8.00016C3.99998 7.63197 3.7015 7.3335 3.33331 7.3335H2.71331C3.01937 4.92004 4.91985 3.01955 7.33331 2.7135V3.3335C7.33331 3.70169 7.63179 4.00016 7.99998 4.00016C8.36817 4.00016 8.66665 3.70169 8.66665 3.3335V2.7135C11.0801 3.01955 12.9806 4.92004 13.2866 7.3335H12.6666C12.2985 7.3335 12 7.63197 12 8.00016C12 8.36835 12.2985 8.66683 12.6666 8.66683H13.2866C12.9806 11.0803 11.0801 12.9808 8.66665 13.2868ZM10.0933 5.0335L6.75998 6.44683C6.60459 6.51416 6.48064 6.6381 6.41331 6.7935L4.99998 10.1268C4.89256 10.3769 4.94798 10.6672 5.13998 10.8602C5.26307 10.9858 5.4308 11.0577 5.60665 11.0602C5.69889 11.0602 5.78999 11.0398 5.87331 11.0002L9.20665 9.58683C9.36204 9.5195 9.48598 9.39556 9.55331 9.24016L10.9666 5.90683C11.072 5.65695 11.0155 5.36813 10.8238 5.17637C10.632 4.9846 10.3432 4.92811 10.0933 5.0335ZM8.43331 8.4335L6.91331 9.10016L7.57998 7.58016L9.09998 6.9135L8.43331 8.4335Z" fill="#3E6AF2"/>
</g>
</g>
</g>
</svg>
