<svg width="16" height="16" viewBox="0 0 16 16" fill="none" xmlns="http://www.w3.org/2000/svg">
<g id="Icons1/Address">
<g id="Icons1/Address_2">
<g id="Icon">
<path id="Icon Shape" fill-rule="evenodd" clip-rule="evenodd" d="M8.00001 0.861328C4.80903 0.861328 2.22223 3.44813 2.22223 6.63911C2.22223 10.5391 7.3139 14.9447 7.53056 15.1324C7.80084 15.3636 8.19918 15.3636 8.46945 15.1324C8.72223 14.9447 13.7778 10.5391 13.7778 6.63911C13.7778 3.44813 11.191 0.861328 8.00001 0.861328ZM8.00001 13.6086C6.46167 12.1641 3.66667 9.05133 3.66667 6.63911C3.66667 4.24587 5.60677 2.30577 8.00001 2.30577C10.3932 2.30577 12.3333 4.24587 12.3333 6.63911C12.3333 9.05133 9.53834 12.1713 8.00001 13.6086ZM8.00001 3.75022C6.40452 3.75022 5.11112 5.04362 5.11112 6.63911C5.11112 8.2346 6.40452 9.52799 8.00001 9.52799C9.5955 9.52799 10.8889 8.2346 10.8889 6.63911C10.8889 5.04362 9.5955 3.75022 8.00001 3.75022ZM8.00001 8.08355C7.20226 8.08355 6.55556 7.43685 6.55556 6.63911C6.55556 5.84136 7.20226 5.19466 8.00001 5.19466C8.79775 5.19466 9.44445 5.84136 9.44445 6.63911C9.44445 7.43685 8.79775 8.08355 8.00001 8.08355Z" fill="#3E6AF2"/>
</g>
</g>
</g>
</svg>
