<svg width="16" height="16" viewBox="0 0 16 16" fill="none" xmlns="http://www.w3.org/2000/svg">
<g id="Icons1/Phone ">
<g id="Icons1/Phone _2">
<g id="Icon">
<path id="Icon Shape" fill-rule="evenodd" clip-rule="evenodd" d="M12.96 8.66674C12.8134 8.66674 12.66 8.62008 12.5134 8.58674C12.2163 8.52129 11.9245 8.4344 11.64 8.32674C10.9995 8.09373 10.2864 8.38128 9.98669 8.99341L9.84002 9.29341C9.19069 8.9322 8.59401 8.48357 8.06669 7.96008C7.5432 7.43276 7.09457 6.83608 6.73335 6.18674L7.01335 6.00008C7.62548 5.70036 7.91303 4.98724 7.68002 4.34674C7.57417 4.06169 7.48731 3.76994 7.42002 3.47341C7.38669 3.32674 7.36002 3.17341 7.34002 3.02008C7.17276 2.04993 6.32438 1.34577 5.34002 1.36008H3.34002C2.75864 1.35462 2.20367 1.60242 1.81964 2.03893C1.43561 2.47545 1.26054 3.05747 1.34002 3.63341C2.07064 9.37892 6.60522 13.897 12.3534 14.6067H12.6067C13.0983 14.6075 13.573 14.4271 13.94 14.1001C14.3666 13.7185 14.6093 13.1724 14.6067 12.6001V10.6001C14.5898 9.64512 13.9001 8.83533 12.96 8.66674ZM13.2934 12.6667C13.2931 12.8582 13.2105 13.0404 13.0667 13.1667C12.9161 13.2968 12.7176 13.3573 12.52 13.3334C7.38404 12.6749 3.3475 8.61913 2.71335 3.48008C2.69191 3.28274 2.75213 3.08522 2.88002 2.93341C3.0064 2.78955 3.18853 2.70699 3.38002 2.70674H5.38002C5.69981 2.69963 5.97959 2.92065 6.04669 3.23341C6.07335 3.41563 6.10669 3.59563 6.14669 3.77341C6.2237 4.12484 6.32619 4.4702 6.45335 4.80674L5.52002 5.24008C5.35884 5.31403 5.23377 5.44914 5.17247 5.61554C5.11116 5.78194 5.11868 5.9659 5.19335 6.12674C6.15282 8.18191 7.80485 9.83394 9.86002 10.7934C10.0223 10.8601 10.2044 10.8601 10.3667 10.7934C10.5346 10.7333 10.6715 10.6085 10.7467 10.4467L11.16 9.51341C11.5047 9.63666 11.8564 9.73907 12.2134 9.82008C12.3911 9.86008 12.5711 9.89341 12.7534 9.92008C13.0661 9.98717 13.2871 10.2669 13.28 10.5867L13.2934 12.6667Z" fill="#3E6AF2"/>
</g>
</g>
</g>
</svg>
