<svg width="16" height="16" viewBox="0 0 16 16" fill="none" xmlns="http://www.w3.org/2000/svg">
<g id="Icons1/Address" opacity="0.2">
<g id="Icons1/Address_2">
<g id="Icon">
<path id="Icon Shape" fill-rule="evenodd" clip-rule="evenodd" d="M2.22217 6.63911C2.22217 3.44813 4.80897 0.861328 7.99995 0.861328C11.1909 0.861328 13.7777 3.44813 13.7777 6.63911C13.7777 10.5391 8.72217 14.9447 8.46939 15.1324C8.19912 15.3636 7.80077 15.3636 7.5305 15.1324L7.5293 15.1314C7.2958 14.929 2.22217 10.5322 2.22217 6.63911ZM3.66661 6.63911C3.66661 9.05133 6.46161 12.1641 7.99995 13.6086C9.53828 12.1713 12.3333 9.05133 12.3333 6.63911C12.3333 4.24587 10.3932 2.30577 7.99995 2.30577C5.60671 2.30577 3.66661 4.24587 3.66661 6.63911ZM7.99995 3.75022C6.40446 3.75022 5.11106 5.04362 5.11106 6.63911C5.11106 8.2346 6.40446 9.52799 7.99995 9.52799C9.59544 9.52799 10.8888 8.2346 10.8888 6.63911C10.8888 5.04362 9.59544 3.75022 7.99995 3.75022ZM6.5555 6.63911C6.5555 7.43685 7.2022 8.08355 7.99995 8.08355C8.79769 8.08355 9.44439 7.43685 9.44439 6.63911C9.44439 5.84136 8.79769 5.19466 7.99995 5.19466C7.2022 5.19466 6.5555 5.84136 6.5555 6.63911Z" fill="#212121"/>
</g>
</g>
</g>
</svg>
