<svg width="16" height="16" viewBox="0 0 16 16" fill="none" xmlns="http://www.w3.org/2000/svg">
<g id="Icons1/Email" opacity="0.2">
<g id="Icons1/Email_2">
<g id="Icon">
<path id="Icon Shape" fill-rule="evenodd" clip-rule="evenodd" d="M12.6666 2.6665H3.33325C2.22868 2.6665 1.33325 3.56193 1.33325 4.6665V11.3332C1.33325 12.4377 2.22868 13.3332 3.33325 13.3332H12.6666C13.7712 13.3332 14.6666 12.4377 14.6666 11.3332V4.6665C14.6666 3.56193 13.7712 2.6665 12.6666 2.6665ZM12.3933 3.99984L8.47325 7.91984C8.34807 8.04605 8.17768 8.11704 7.99992 8.11704C7.82216 8.11704 7.65176 8.04605 7.52659 7.91984L3.60659 3.99984H12.3933ZM12.6666 11.9998C13.0348 11.9998 13.3333 11.7014 13.3333 11.3332V4.93984L9.41325 8.85984C8.6324 9.63971 7.36743 9.63971 6.58659 8.85984L2.66659 4.93984V11.3332C2.66659 11.7014 2.96506 11.9998 3.33325 11.9998H12.6666Z" fill="#212121"/>
</g>
</g>
</g>
</svg>
