<svg width="16" height="16" viewBox="0 0 16 16" fill="none" xmlns="http://www.w3.org/2000/svg">
<g id="Icons1/Phone " opacity="0.2">
<g id="Icons1/Phone _2">
<g id="Icon">
<path id="Icon Shape" fill-rule="evenodd" clip-rule="evenodd" d="M12.6049 8.60855C12.7231 8.63735 12.8437 8.66674 12.9601 8.66674C13.9002 8.83533 14.5899 9.64512 14.6067 10.6001V12.6001C14.6094 13.1724 14.3667 13.7185 13.9401 14.1001C13.573 14.4271 13.0984 14.6075 12.6067 14.6067H12.3534C6.60529 13.897 2.0707 9.37892 1.34008 3.63341C1.2606 3.05747 1.43567 2.47545 1.8197 2.03893C2.20373 1.60242 2.75871 1.35462 3.34008 1.36008H5.34008C6.32444 1.34577 7.17283 2.04993 7.34008 3.02008C7.36008 3.17341 7.38675 3.32674 7.42008 3.47341C7.48737 3.76994 7.57423 4.06169 7.68008 4.34674C7.91309 4.98724 7.62555 5.70036 7.01341 6.00008L6.73341 6.18674C7.09463 6.83608 7.54326 7.43276 8.06675 7.96008C8.59407 8.48357 9.19075 8.9322 9.84008 9.29341L9.98675 8.99341C10.2865 8.38128 10.9996 8.09373 11.6401 8.32674C11.9245 8.4344 12.2164 8.52129 12.5134 8.58674C12.5437 8.59362 12.5742 8.60107 12.6049 8.60855ZM13.0667 13.1667C13.2106 13.0404 13.2932 12.8582 13.2934 12.6667L13.2801 10.5867C13.2872 10.2669 13.0662 9.98717 12.7534 9.92008C12.5712 9.89341 12.3912 9.86008 12.2134 9.82008C11.8565 9.73907 11.5047 9.63666 11.1601 9.51341L10.7467 10.4467C10.6716 10.6085 10.5347 10.7333 10.3667 10.7934C10.2044 10.8601 10.0224 10.8601 9.86008 10.7934C7.80491 9.83394 6.15288 8.18191 5.19341 6.12674C5.11874 5.9659 5.11122 5.78194 5.17253 5.61554C5.23383 5.44914 5.3589 5.31403 5.52008 5.24008L6.45341 4.80674C6.32625 4.4702 6.22376 4.12484 6.14675 3.77341C6.10675 3.59563 6.07341 3.41563 6.04675 3.23341C5.97965 2.92065 5.69988 2.69963 5.38008 2.70674H3.38008C3.1886 2.70699 3.00646 2.78955 2.88008 2.93341C2.75219 3.08522 2.69197 3.28274 2.71341 3.48008C3.34756 8.61913 7.3841 12.6749 12.5201 13.3334C12.7176 13.3573 12.9161 13.2968 13.0667 13.1667Z" fill="#212121"/>
</g>
</g>
</g>
</svg>
