<svg width="16" height="16" viewBox="0 0 16 16" fill="none" xmlns="http://www.w3.org/2000/svg">
<g id="Icons1/Site" opacity="0.2">
<g id="Icons1/Site_2">
<g id="Icon">
<path id="Icon Shape" fill-rule="evenodd" clip-rule="evenodd" d="M1.33325 8.00016C1.33325 4.31826 4.31802 1.3335 7.99992 1.3335C9.76803 1.3335 11.4637 2.03588 12.714 3.28612C13.9642 4.53636 14.6666 6.23205 14.6666 8.00016C14.6666 11.6821 11.6818 14.6668 7.99992 14.6668C4.31802 14.6668 1.33325 11.6821 1.33325 8.00016ZM8.66659 12.6668V13.2868C11.08 12.9808 12.9805 11.0803 13.2866 8.66683H12.6666C12.2984 8.66683 11.9999 8.36835 11.9999 8.00016C11.9999 7.63197 12.2984 7.3335 12.6666 7.3335H13.2866C12.9805 4.92004 11.08 3.01955 8.66659 2.7135V3.3335C8.66659 3.70169 8.36811 4.00016 7.99992 4.00016C7.63173 4.00016 7.33325 3.70169 7.33325 3.3335V2.7135C4.91979 3.01955 3.01931 4.92004 2.71325 7.3335H3.33325C3.70144 7.3335 3.99992 7.63197 3.99992 8.00016C3.99992 8.36835 3.70144 8.66683 3.33325 8.66683H2.71325C3.01931 11.0803 4.91979 12.9808 7.33325 13.2868V12.6668C7.33325 12.2986 7.63173 12.0002 7.99992 12.0002C8.36811 12.0002 8.66659 12.2986 8.66659 12.6668ZM10.0933 5.0335L6.75992 6.44683C6.60453 6.51416 6.48058 6.6381 6.41325 6.7935L4.99992 10.1268C4.8925 10.3769 4.94792 10.6672 5.13992 10.8602C5.26301 10.9858 5.43074 11.0577 5.60659 11.0602C5.69883 11.0602 5.78993 11.0398 5.87325 11.0002L9.20659 9.58683C9.36198 9.5195 9.48592 9.39556 9.55325 9.24016L10.9666 5.90683C11.072 5.65695 11.0155 5.36813 10.8237 5.17637C10.632 4.9846 10.3431 4.92811 10.0933 5.0335ZM6.91325 9.10016L8.43325 8.4335L9.09992 6.9135L7.57992 7.58016L6.91325 9.10016Z" fill="#212121"/>
</g>
</g>
</g>
</svg>
