<svg width="22" height="30" viewBox="0 0 22 30" fill="none" xmlns="http://www.w3.org/2000/svg">
<g id="logos-css-3">
<g id="Icon">
<path id="Icon Path" d="M10.6242 29.9242L1.96638 27.5207L0.0369873 5.88086H21.2373L19.3059 27.5174L10.6242 29.9242Z" fill="#264DE4"/>
<path id="Icon Path_2" d="M17.6523 26.1399L19.3028 7.65039H10.6371V28.0847L17.6523 26.1399Z" fill="#2965F1"/>
<path id="Icon Path_3" d="M4.46008 15.6763L4.69792 18.3303H10.6372V15.6763H4.46008Z" fill="#EBEBEB"/>
<path id="Icon Path_4" d="M3.98206 10.3042L4.2233 12.9582H10.6372V10.3042H3.98206V10.3042Z" fill="#EBEBEB"/>
<path id="Icon Path_5" d="M10.6371 22.569L10.6254 22.572L7.66965 21.7739L7.48067 19.6572H4.81641L5.18821 23.8245L10.6249 25.3336L10.6371 25.3303V22.569Z" fill="#EBEBEB"/>
<path id="Icon Path_6" d="M5.02637 0H8.24077V1.34427H6.37063V2.68853H8.24094V4.03271H5.02637V0Z" fill="black"/>
<path id="Icon Path_7" d="M8.88375 0H12.0982V1.16892H10.228V1.40269H12.0982V4.09122H8.88383V2.86371H10.7541V2.62994H8.88367V0H8.88375Z" fill="black"/>
<path id="Icon Path_8" d="M12.7412 0H15.9557V1.16892H14.0855V1.40269H15.9557V4.09122H12.7412V2.86371H14.6114V2.62994H12.7413V0H12.7412Z" fill="black"/>
<path id="Icon Path_9" d="M16.7973 15.676L17.2764 10.3042H10.628V12.9582H14.3678L14.1263 15.676H10.628V18.3301H13.8962L13.588 21.7722L10.6279 22.5711V25.3323L16.0689 23.8244L16.1088 23.376L16.7326 16.3887L16.7973 15.676Z" fill="white"/>
</g>
</g>
</svg>
