<svg width="26" height="35" viewBox="0 0 26 35" fill="none" xmlns="http://www.w3.org/2000/svg">
<g id="logos-java">
<g id="Icon">
<path id="Icon Path" d="M8.35085 27.0566C8.35085 27.0566 7.01579 27.833 9.30101 28.0957C12.0695 28.4115 13.4844 28.3663 16.5354 27.7888C16.5354 27.7888 17.3376 28.2918 18.4577 28.7274C11.6184 31.6586 2.97885 28.5576 8.35085 27.0566Z" fill="#5382A1"/>
<path id="Icon Path_2" d="M7.515 23.2314C7.515 23.2314 6.01759 24.3399 8.30453 24.5764C11.2619 24.8815 13.5974 24.9065 17.6388 24.1283C17.6388 24.1283 18.1978 24.695 19.0767 25.0049C10.8075 27.4229 1.59717 25.1956 7.515 23.2314" fill="#5382A1"/>
<path id="Icon Path_3" d="M14.5606 16.7428C16.2459 18.683 14.1178 20.4289 14.1178 20.4289C14.1178 20.4289 18.3968 18.22 16.4317 15.4538C14.5963 12.8743 13.1887 11.5924 20.8085 7.17334C20.8085 7.17334 8.84802 10.1605 14.5606 16.7427" fill="#E76F00"/>
<path id="Icon Path_4" d="M23.6062 29.8858C23.6062 29.8858 24.5941 30.6998 22.518 31.3296C18.5703 32.5256 6.08704 32.8867 2.6192 31.3773C1.37266 30.8351 3.71037 30.0825 4.44568 29.9245C5.21254 29.7582 5.65085 29.7892 5.65085 29.7892C4.26451 28.8126 -3.30986 31.7068 1.80348 32.5356C15.7481 34.7971 27.2232 31.5174 23.6062 29.8858Z" fill="#5382A1"/>
<path id="Icon Path_5" d="M8.99278 19.2684C8.99278 19.2684 2.64312 20.7766 6.74429 21.3242C8.47588 21.556 11.9278 21.5036 15.1433 21.2341C17.7711 21.0126 20.4098 20.5412 20.4098 20.5412C20.4098 20.5412 19.4832 20.9381 18.8128 21.3958C12.3647 23.0917 -0.0918398 22.3028 3.49424 20.568C6.527 19.1021 8.99289 19.2684 8.99289 19.2684" fill="#5382A1"/>
<path id="Icon Path_6" d="M20.3835 25.6352C26.9384 22.229 23.9077 18.9558 21.7923 19.3969C21.2738 19.5047 21.0427 19.5982 21.0427 19.5982C21.0427 19.5982 21.2352 19.2967 21.6028 19.1662C25.7876 17.6949 29.0061 23.5055 20.2518 25.8068C20.2518 25.8069 20.3533 25.7163 20.3835 25.6352Z" fill="#5382A1"/>
<path id="Icon Path_7" d="M16.4317 0.0376988C16.4317 0.0376988 20.0619 3.6692 12.9886 9.25312C7.31671 13.7325 11.6953 16.2865 12.9863 19.2045C9.67547 16.2174 7.2457 13.5878 8.87583 11.1404C11.2683 7.54763 17.8963 5.80582 16.4317 0.0375977" fill="#E76F00"/>
<path id="Icon Path_8" d="M9.63686 34.8651C15.9287 35.2679 25.5904 34.6417 25.8192 31.6646C25.8192 31.6646 25.3794 32.7933 20.6194 33.6895C15.2492 34.7 8.62591 34.5821 4.69751 33.9344C4.69761 33.9344 5.5017 34.6 9.63696 34.8651" fill="#5382A1"/>
</g>
</g>
</svg>
