<svg width="30" height="28" viewBox="0 0 30 28" fill="none" xmlns="http://www.w3.org/2000/svg">
<g id="logos-sketch">
<g id="Icon">
<path id="Icon Path" d="M15 0L6.54551 0.893906L0 9.68062L15 27.1479L30 9.68051L23.4546 0.893906L15 0Z" fill="#FDB300"/>
<path id="Icon Path_2" d="M0 9.68066L15 27.1479L6.0757 9.68066H0Z" fill="#EB6C00"/>
<path id="Icon Path_3" d="M23.9242 9.68066L15 27.1479L30 9.68066H23.9242Z" fill="#EB6C00"/>
<path id="Icon Path_4" d="M6.07568 9.68066L15 27.1479L23.9243 9.68066H6.07568Z" fill="#FDAD00"/>
<path id="Icon Path_5" d="M6.54548 0.893906L6.07556 9.68062L15 0L6.54548 0.893906Z" fill="#FDD231"/>
<path id="Icon Path_6" d="M23.9242 9.68062L23.4545 0.893906L15 0L23.9242 9.68062Z" fill="#FDD231"/>
<path id="Icon Path_7" d="M23.9243 9.68076H30L23.4546 0.894043L23.9243 9.68076Z" fill="#FDAD00"/>
<path id="Icon Path_8" d="M0 9.68076H6.0757L6.54551 0.894043L0 9.68076Z" fill="#FDAD00"/>
<path id="Icon Path_9" d="M15 0L6.07568 9.68051H23.9243L15 0Z" fill="#FEEEB7"/>
</g>
</g>
</svg>
