<svg width="22" height="30" viewBox="0 0 22 30" fill="none" xmlns="http://www.w3.org/2000/svg">
<g id="logos-html-5">
<g id="Icon">
<path id="Icon Path" d="M21.2373 5.88086L19.3059 27.5174L10.6242 29.9242L1.96638 27.5207L0.0369873 5.88086H21.2373Z" fill="#E44D26"/>
<path id="Icon Path_2" d="M10.6371 28.0847L17.6523 26.1399L19.3028 7.65039H10.6371V28.0847Z" fill="#F16529"/>
<path id="Icon Path_3" d="M6.88258 12.9582H10.6372V10.3042H3.98206L4.04555 11.0162L4.6979 18.3301H10.6372V15.676H7.12516L6.88258 12.9582Z" fill="#EBEBEB"/>
<path id="Icon Path_4" d="M7.48067 19.6572H4.81641L5.18821 23.8245L10.6249 25.3336L10.6371 25.3303V22.569L10.6254 22.572L7.66965 21.7739L7.48067 19.6572V19.6572Z" fill="#EBEBEB"/>
<path id="Icon Path_5" d="M2.0094 0H3.35815V1.33255H4.59198V0H5.94081V4.03529H4.59206V2.68404H3.35824V4.03529H2.00948V0H2.0094Z" fill="black"/>
<path id="Icon Path_6" d="M7.71442 1.3382H6.52722V0H10.2514V1.3382H9.06343V4.03529H7.71467V1.3382H7.71459H7.71442Z" fill="black"/>
<path id="Icon Path_7" d="M10.8424 0H12.2488L13.1138 1.41789L13.9781 0H15.385V4.03529H14.0418V2.03518L13.1138 3.46994H13.0906L12.1621 2.03518V4.03529H10.8424V0Z" fill="black"/>
<path id="Icon Path_8" d="M16.0562 0H17.4054V2.7015H19.3021V4.03529H16.0562V0H16.0562Z" fill="black"/>
<path id="Icon Path_9" d="M10.628 18.3303H13.8962L13.588 21.7724L10.6279 22.5714V25.3325L16.0689 23.8246L16.1088 23.3762L16.7326 16.389L16.7973 15.6763H10.628V18.3303Z" fill="white"/>
<path id="Icon Path_10" d="M10.6279 12.9518V12.9582H17.0387L17.0919 12.3617L17.2129 11.0162L17.2763 10.3042H10.6279V12.9518V12.9518Z" fill="white"/>
</g>
</g>
</svg>
