<svg width="16" height="16" viewBox="0 0 16 16" fill="none" xmlns="http://www.w3.org/2000/svg">
<g id="Icons1/Address" opacity="0.2">
<g id="Icons1/Address_2">
<g id="Icon">
<path id="Icon Shape" fill-rule="evenodd" clip-rule="evenodd" d="M2.22223 6.63911C2.22223 3.44813 4.80903 0.861328 8.00001 0.861328C11.191 0.861328 13.7778 3.44813 13.7778 6.63911C13.7778 10.5391 8.72223 14.9447 8.46945 15.1324C8.19918 15.3636 7.80084 15.3636 7.53056 15.1324L7.52936 15.1314C7.29586 14.929 2.22223 10.5322 2.22223 6.63911ZM3.66667 6.63911C3.66667 9.05133 6.46167 12.1641 8.00001 13.6086C9.53834 12.1713 12.3333 9.05133 12.3333 6.63911C12.3333 4.24587 10.3932 2.30577 8.00001 2.30577C5.60677 2.30577 3.66667 4.24587 3.66667 6.63911ZM8.00001 3.75022C6.40452 3.75022 5.11112 5.04362 5.11112 6.63911C5.11112 8.2346 6.40452 9.52799 8.00001 9.52799C9.5955 9.52799 10.8889 8.2346 10.8889 6.63911C10.8889 5.04362 9.5955 3.75022 8.00001 3.75022ZM6.55556 6.63911C6.55556 7.43685 7.20226 8.08355 8.00001 8.08355C8.79775 8.08355 9.44445 7.43685 9.44445 6.63911C9.44445 5.84136 8.79775 5.19466 8.00001 5.19466C7.20226 5.19466 6.55556 5.84136 6.55556 6.63911Z" fill="#212121"/>
</g>
</g>
</g>
</svg>
