<svg width="16" height="16" viewBox="0 0 16 16" fill="none" xmlns="http://www.w3.org/2000/svg">
<g id="Icons1/Email" opacity="0.2">
<g id="Icons1/Email_2">
<g id="Icon">
<path id="Icon Shape" fill-rule="evenodd" clip-rule="evenodd" d="M12.6666 2.6665H3.33331C2.22874 2.6665 1.33331 3.56193 1.33331 4.6665V11.3332C1.33331 12.4377 2.22874 13.3332 3.33331 13.3332H12.6666C13.7712 13.3332 14.6666 12.4377 14.6666 11.3332V4.6665C14.6666 3.56193 13.7712 2.6665 12.6666 2.6665ZM12.3933 3.99984L8.47331 7.91984C8.34814 8.04605 8.17774 8.11704 7.99998 8.11704C7.82222 8.11704 7.65182 8.04605 7.52665 7.91984L3.60665 3.99984H12.3933ZM12.6666 11.9998C13.0348 11.9998 13.3333 11.7014 13.3333 11.3332V4.93984L9.41331 8.85984C8.63247 9.63971 7.36749 9.63971 6.58665 8.85984L2.66665 4.93984V11.3332C2.66665 11.7014 2.96512 11.9998 3.33331 11.9998H12.6666Z" fill="#212121"/>
</g>
</g>
</g>
</svg>
