<svg width="16" height="16" viewBox="0 0 16 16" fill="none" xmlns="http://www.w3.org/2000/svg">
<g id="Icons1/Phone " opacity="0.2">
<g id="Icons1/Phone _2">
<g id="Icon">
<path id="Icon Shape" fill-rule="evenodd" clip-rule="evenodd" d="M12.6049 8.60855C12.723 8.63735 12.8436 8.66674 12.96 8.66674C13.9001 8.83533 14.5898 9.64512 14.6067 10.6001V12.6001C14.6093 13.1724 14.3666 13.7185 13.94 14.1001C13.573 14.4271 13.0983 14.6075 12.6067 14.6067H12.3534C6.60522 13.897 2.07064 9.37892 1.34002 3.63341C1.26054 3.05747 1.43561 2.47545 1.81964 2.03893C2.20367 1.60242 2.75864 1.35462 3.34002 1.36008H5.34002C6.32438 1.34577 7.17276 2.04993 7.34002 3.02008C7.36002 3.17341 7.38669 3.32674 7.42002 3.47341C7.48731 3.76994 7.57417 4.06169 7.68002 4.34674C7.91303 4.98724 7.62548 5.70036 7.01335 6.00008L6.73335 6.18674C7.09457 6.83608 7.5432 7.43276 8.06669 7.96008C8.59401 8.48357 9.19069 8.9322 9.84002 9.29341L9.98669 8.99341C10.2864 8.38128 10.9995 8.09373 11.64 8.32674C11.9245 8.4344 12.2163 8.52129 12.5134 8.58674C12.5436 8.59362 12.5742 8.60107 12.6049 8.60855ZM13.0667 13.1667C13.2105 13.0404 13.2931 12.8582 13.2934 12.6667L13.28 10.5867C13.2871 10.2669 13.0661 9.98717 12.7534 9.92008C12.5711 9.89341 12.3911 9.86008 12.2134 9.82008C11.8564 9.73907 11.5047 9.63666 11.16 9.51341L10.7467 10.4467C10.6715 10.6085 10.5346 10.7333 10.3667 10.7934C10.2044 10.8601 10.0223 10.8601 9.86002 10.7934C7.80485 9.83394 6.15282 8.18191 5.19335 6.12674C5.11868 5.9659 5.11116 5.78194 5.17247 5.61554C5.23377 5.44914 5.35884 5.31403 5.52002 5.24008L6.45335 4.80674C6.32619 4.4702 6.2237 4.12484 6.14669 3.77341C6.10669 3.59563 6.07335 3.41563 6.04669 3.23341C5.97959 2.92065 5.69981 2.69963 5.38002 2.70674H3.38002C3.18853 2.70699 3.0064 2.78955 2.88002 2.93341C2.75213 3.08522 2.69191 3.28274 2.71335 3.48008C3.3475 8.61913 7.38404 12.6749 12.52 13.3334C12.7176 13.3573 12.9161 13.2968 13.0667 13.1667Z" fill="#212121"/>
</g>
</g>
</g>
</svg>
